<?xml version="1.0" standalone="no"?><!DOCTYPE svg PUBLIC "-//W3C//DTD SVG 1.1//EN" "http://www.w3.org/Graphics/SVG/1.1/DTD/svg11.dtd"><svg t="1684472063451" class="icon" viewBox="0 0 1024 1024" version="1.1" xmlns="http://www.w3.org/2000/svg" p-id="2086" xmlns:xlink="http://www.w3.org/1999/xlink" width="200" height="200"><path d="M648.8 596.64H230.88a16 16 0 0 0 0 32h417.92a16 16 0 0 0 0-32zM648.8 696.8H230.88a16 16 0 0 0 0 32h417.92a16 16 0 0 0 0-32zM460 796.96H230.88a16 16 0 0 0 0 32h229.12a16 16 0 0 0 0-32z" fill="#3FA9F5" p-id="2087"></path><path d="M926.4 20.96H260.48a48 48 0 0 0-48 48v74.08H97.76a48 48 0 0 0-48 48v762.08a48 48 0 0 0 48 48h681.92a48 48 0 0 0 48-48v-74.88h99.2a48 48 0 0 0 48-48V68.48a48 48 0 0 0-48.48-47.52z m-130.24 932.16a16 16 0 0 1-16 16H97.76a16 16 0 0 1-16-16V190.72a16 16 0 0 1 16-16h681.92a16 16 0 0 1 16 16z m146.88-122.24a16 16 0 0 1-16 16H827.2v-656a48 48 0 0 0-48-48H243.84V68.48a16 16 0 0 1 16-16H926.4a16 16 0 0 1 16 16z" fill="#3FA9F5" p-id="2088"></path><path d="M365.44 420.64l-13.12 80a16 16 0 0 0 6.4 16 16 16 0 0 0 9.44 2.88 17.92 17.92 0 0 0 7.52-1.76L446.56 480l71.36 36.96a16 16 0 0 0 23.04-16.96l-13.92-80 57.28-56.32A16 16 0 0 0 576 336l-80-11.2-35.84-71.84a16 16 0 0 0-14.4-8.96 16 16 0 0 0-14.4 9.12l-35.2 72.16-80 12a16 16 0 0 0-8.64 27.36z m43.52-64a16 16 0 0 0 12-8.8l24.64-50.72 25.28 50.56a16 16 0 0 0 12 8.64l55.84 7.84-40.16 39.52a16 16 0 0 0-4.48 14.08l9.76 55.52-50.08-25.92a16 16 0 0 0-14.88 0l-49.76 26.56 9.28-55.68a16 16 0 0 0-4.64-14.08l-40.48-39.2z" fill="#3FA9F5" p-id="2089"></path></svg>